<?xml version="1.0" encoding="utf-8"?>
<!-- Generator: Adobe Illustrator 18.0.0, SVG Export Plug-In . SVG Version: 6.00 Build 0)  -->
<!DOCTYPE svg PUBLIC "-//W3C//DTD SVG 1.1//EN" "http://www.w3.org/Graphics/SVG/1.1/DTD/svg11.dtd">
<svg version="1.1" id="Livello_1" xmlns:serif="http://www.serif.com/"
	 xmlns="http://www.w3.org/2000/svg" xmlns:xlink="http://www.w3.org/1999/xlink" x="0px" y="0px" viewBox="0 0 595.3 841.9"
	 enable-background="new 0 0 595.3 841.9" xml:space="preserve">
<g>
	<path fill="#E63253" d="M382.9,437.3c6.7,5.6,11.6,11.7,14.5,18.2l-4.6,2.2c-4.2-7.4-8.7-12.5-13.6-15.4c-4.9-2.8-8.9-4.2-12.2-4.2
		c-1.1,0-1.8,0.3-2.1,1c-0.3,0.7-0.5,1.4-0.5,2.2l0.8,7.8c0,3.2-1.1,6.2-3.2,8.9c-2.1,2.7-5.2,4.1-9.2,4.1c-3.1,0-6.1-1.1-9-3.4
		c-2.9-2.2-4.4-5.9-4.4-11c0-4.9,1.9-9.2,5.7-13.1c3.8-3.9,9.1-5.8,16-5.8C368.9,428.8,376.1,431.7,382.9,437.3"/>
	<path fill="#5B7DF7" d="M208.8,414.1l-0.2-3.1h-0.3c-0.8,1.4-2,3.5-5.9,3.5c-4.8,0-6.1-3-6.1-6.9v-9.5c0-5.5,2.1-7.5,7.7-8.9
		c3-0.8,4.3-1.1,4.3-3v-5.5c0-1.1-0.6-1.7-1.8-1.7c-1.3,0-2,0.7-2,2v4.9h-7.7v-6c0-5.5,3.8-8,10.2-8c6.2,0,9.5,2.4,9.5,7.5v34.8
		H208.8z M208.3,393.1c-0.6,0.3-1.3,0.5-2.1,0.8c-1.3,0.3-1.8,1.3-1.8,2.6v8.9c0,1.3,0.7,2,2,2c1.2,0,1.7-0.5,2-1.4V393.1z"/>
	<path fill="#5B7DF7" d="M220.2,414.1v-41.9h12.4c6.1,0,8.4,2.5,8.4,6.7v9.5c0,2.8-1.8,4.7-4.6,5.1v0.3c2.8,0.3,4.8,1.6,4.8,5.1
		v15.4h-8.5v-16c0-1.1-0.6-1.8-2-1.8h-1.9v17.8H220.2z M232.5,379.6c0-1.1-0.7-1.6-2.1-1.6h-1.7v13.1h1.7c1.4,0,2.1-0.8,2.1-2.1
		V379.6z"/>
	<path fill="#5B7DF7" d="M244.4,414.1v-41.9h12c6.1,0,8.4,2.5,8.4,6.7v8c0,2.8-1.4,4.6-4.4,5v0.3c2.8,0.4,5,1.5,5,5.4v11.2
		c0,3.7-2.2,5.4-8.1,5.4H244.4z M256.7,380c0-1.6-0.4-2.3-2.1-2.3h-1.7v11.9h1.7c1.4,0,2.1-0.7,2.1-2.1V380z M256.8,397
		c0-1.5-0.9-2.2-2.5-2.2h-1.4v13.9h1.4c1.6,0,2.5-0.8,2.5-2.3V397z"/>
	<path fill="#5B7DF7" d="M289.3,406.3c0,5.5-3.8,8.2-10.4,8.2c-6.8,0-10.6-3-10.6-8.3v-25.9c0-5.3,3.8-8.4,10.5-8.4
		s10.5,3.2,10.5,8.6V406.3z M280.8,379.7c0-1.3-0.7-1.9-2-1.9c-1.3,0-1.9,0.6-1.9,1.9v27c0,1.3,0.6,1.9,1.9,1.9c1.3,0,2-0.6,2-1.9
		V379.7z"/>
	<path fill="#5B7DF7" d="M292.7,414.1v-41.9h12.4c6.1,0,8.4,2.5,8.4,6.7v9.5c0,2.8-1.8,4.7-4.6,5.1v0.3c2.8,0.3,4.8,1.6,4.8,5.1
		v15.4h-8.5v-16c0-1.1-0.6-1.8-2-1.8h-1.9v17.8H292.7z M305.1,379.6c0-1.1-0.7-1.6-2.1-1.6h-1.7v13.1h1.7c1.4,0,2.1-0.8,2.1-2.1
		V379.6z"/>
	<path fill="#5B7DF7" d="M337.1,404.5c0,6.6-3.3,10-10.1,10c-6.7,0-9.9-3.2-9.9-10v-22.8c0-6.7,3.2-10,10-10c6.7,0,10.1,3.2,10.1,10
		v13.7h-12v9.2c0,1.7,0.7,2.6,1.9,2.6c1.3,0,2-0.9,2-2.6v-4.8h8.2V404.5z M328.9,381.6c0-1.8-0.6-2.6-1.9-2.6c-1.3,0-2,0.8-2,2.6v8
		h3.8V381.6z"/>
	<path fill="#5B7DF7" d="M352.8,390.7h7.1v13.8c0,6.7-2.2,10-8.9,10c-6.8,0-10-3.2-10-10v-43.7h8.2v11.3h10.7v7.4h-10.7v25
		c0,1.7,0.6,2.6,1.9,2.6c1.2,0,1.8-0.9,1.8-2.6V390.7z"/>
	<path fill="#5B7DF7" d="M363.8,360.2h8.3v7.6h-8.3V360.2z M363.8,372.1h8.3v41.9h-8.3V372.1z"/>
	<path fill="#5B7DF7" d="M388.2,414.1L388,411h-0.3c-0.8,1.4-2,3.5-5.9,3.5c-4.8,0-6.1-3-6.1-6.9v-9.5c0-5.5,2.1-7.5,7.7-8.9
		c3-0.8,4.3-1.1,4.3-3v-5.5c0-1.1-0.6-1.7-1.8-1.7c-1.3,0-2,0.7-2,2v4.9h-7.7v-6c0-5.5,3.8-8,10.2-8c6.2,0,9.5,2.4,9.5,7.5v34.8
		H388.2z M387.6,393.1c-0.6,0.3-1.3,0.5-2.1,0.8c-1.3,0.3-1.8,1.3-1.8,2.6v8.9c0,1.3,0.7,2,2,2c1.2,0,1.7-0.5,2-1.4V393.1z"/>
	<path fill="#5B7DF7" d="M206.3,481.5c-6.6,0-9.9-3.3-9.9-10v-7.3h7.9v7.3c0,1.7,0.7,2.6,2,2.6s1.9-0.9,1.9-2.6v-13h-0.3
		c-1,2-2.7,3.1-5.2,3.1c-5,0-6.4-3.2-6.4-9.3v-25.3c0-4.8,2.6-7.7,6.6-7.7c2.6,0,4.3,1.4,5.7,4h0.3l0.1-3.7h7.5v51.8
		C216.4,478.2,213,481.5,206.3,481.5 M204.6,450.3c0,2.6,0.3,3.8,1.9,3.8c1.4,0,2-1.3,2-3.3V430c0-2.1-0.4-3.5-1.9-3.5
		c-1.3,0-2,0.9-2,2.6V450.3z"/>
	<path fill="#5B7DF7" d="M220.2,462v-42.3h7.8l0.2,3.7h0.3c0.9-2.4,2.5-4,5.2-4c0.7,0,1.3,0.1,1.9,0.3v7.4c-0.7-0.3-1.3-0.3-2.2-0.3
		c-3.6,0-4.9,1.8-4.9,5.2v30H220.2z"/>
	<path fill="#5B7DF7" d="M244.4,471.8l-0.2-3.1h-0.3c-0.7,1.4-1.9,3.5-5.7,3.5c-4.7,0-6-3-6-6.9v-9.5c0-5.5,2.1-7.5,7.5-8.9
		c2.9-0.8,4.2-1.1,4.2-3v-5.5c0-1.1-0.6-1.7-1.7-1.7c-1.2,0-1.9,0.7-1.9,2v4.9h-7.5v-6c0-5.5,3.7-8,10-8c6.1,0,9.2,2.4,9.2,7.5v34.8
		H244.4z M243.9,450.9c-0.6,0.3-1.2,0.5-2.1,0.8c-1.2,0.3-1.7,1.3-1.7,2.6v8.9c0,1.3,0.7,2,1.9,2c1.2,0,1.7-0.5,1.9-1.4V450.9z"/>
	<polygon fill="#5B7DF7" points="255.6,462 255.6,419.8 271.9,419.8 271.9,425.6 264.3,425.6 264.3,437.5 270.5,437.5 270.5,443.3 
		264.3,443.3 264.3,462 	"/>
	<rect x="275" y="419.8" fill="#5B7DF7" width="8.7" height="42.3"/>
	<path fill="#5B7DF7" d="M299.3,446.5h7.8v5.6c0,6.6-3,10-9.8,10c-6.7,0-9.9-3.2-9.9-10v-22.8c0-6.7,3.2-10,10-10
		c6.7,0,9.7,3.2,9.7,10v5.4h-7.8v-5.4c0-1.7-0.6-2.6-1.9-2.6c-1.3,0-2,0.9-2,2.6v22.8c0,1.7,0.7,2.6,1.9,2.6c1.3,0,2-0.9,2-2.6
		V446.5z"/>
	<path fill="#5B7DF7" d="M323.2,461.7l-0.2-3.1h-0.3c-0.8,1.4-2,3.5-5.9,3.5c-4.8,0-6.1-3-6.1-6.9v-9.5c0-5.5,2.1-7.5,7.7-8.9
		c3-0.8,4.3-1.1,4.3-3v-5.5c0-1.1-0.6-1.7-1.8-1.7c-1.3,0-2,0.7-2,2v4.9h-7.7v-6c0-5.5,3.8-8,10.2-8c6.2,0,9.5,2.4,9.5,7.5v34.8
		H323.2z M322.7,440.7c-0.6,0.3-1.3,0.5-2.1,0.8c-1.3,0.3-1.8,1.3-1.8,2.6v8.9c0,1.3,0.7,2,2,2c1.2,0,1.7-0.5,2-1.4V440.7z"/>
	<rect x="239.2" y="419.8" fill="#5B7DF7" width="12.7" height="5.8"/>
</g>
</svg>
